<svg width="100pt" height="100pt" version="1.1" viewBox="0 0 100 100" xmlns="http://www.w3.org/2000/svg">
    <path fill="{{ include.fill | default: 'none' }}" d="m 32.155932,23.941887 c 0,-15.9217751 19.285111,-23.81904177 30.467958,-12.635488 6.660085,6.715364 5.218757,10.597692 5.218757,45.234689 H 59.360082 V 23.941179 c 0,-12.403488 -18.715364,-12.409001 -18.715364,0 v 5.373423 H 32.162152 Z M 23.92742,67.856123 c -15.9104635,0 -23.7681441,-19.334592 -12.629973,-30.467959 6.57724,-6.571725 10.00674,-5.24081 45.229035,-5.24081 v 8.482565 h -32.59991 c -12.342838,0 -12.392461,18.749295 0,18.749295 h 5.40099 v 8.482564 z m 43.914236,8.228512 c 0,15.844016 -19.213008,23.796419 -30.462302,12.635487 -6.665599,-6.720878 -5.218756,-10.647315 -5.218756,-45.262964 h 8.482564 v 32.62677 c 0,12.364892 18.715365,12.37592 18.715365,0 v -5.40099 h 8.482564 z M 88.700283,62.637367 c -6.627004,6.566212 -10.404431,5.218756 -45.234689,5.218756 v -8.482564 h 32.599909 c 12.397975,0 12.342839,-18.749296 0,-18.749296 h -5.400989 v -8.482564 h 5.400989 c 15.817156,0 23.824697,19.213008 12.635487,30.494819 z"/>
</svg>
